<?xml version="1.0" encoding="UTF-8"?>
<svg version="1.1" xmlns="http://www.w3.org/2000/svg" width="80" height="80">
<path d="M0 0 C1.796875 1.15625 1.796875 1.15625 3.5625 2.5625 C6.34461197 4.77006439 6.34461197 4.77006439 9.9375 5 C12.31035391 4.22519056 14.56513457 3.36955096 16.875 2.4375 C23.28758123 -0.01579812 27.94756568 0.39917502 34.125 3.0625 C38.21480743 4.81974142 40.65520868 5.57992412 45 4 C45.99 3.319375 46.98 2.63875 48 1.9375 C51.44893786 -0.28993904 52.97790602 -0.59903527 57 0 C61.10098096 1.81206135 63.26200097 3.84811342 65 8 C64.73907143 11.26160713 64.0332302 13.9003094 63 17 C62.896875 17.825 62.79375 18.65 62.6875 19.5 C62 22 62 22 60.5 23.75 C56.83949855 25.58025073 53.07453666 25.9685364 49 26 C47 25 47 25 46.0625 22.3125 C46 19 46 19 48.125 15.75 C50.80635541 13.18522526 52.43248562 11.86777377 56 11 C56.99 11.495 56.99 11.495 58 12 C58 11.01 58 10.02 58 9 C54.69903842 8.1747596 52.1967 7.62998571 49 9 C48.67 9.99 48.34 10.98 48 12 C46.88625 12.45375 45.7725 12.9075 44.625 13.375 C40.48529243 15.23073098 39.80835491 15.95272948 38 20 C37.67257813 20.65484375 37.34515625 21.3096875 37.0078125 21.984375 C33.46243916 29.69620898 32.78740586 37.64935366 32 46 C27.14791462 47.80063225 24.11092494 48.02218499 19 47 C17.69276045 42.99113205 16.91636555 39.46381858 16.6875 35.25 C16.18876067 29.20971258 13.73457844 24.33285391 11 19 C10.7009375 18.278125 10.401875 17.55625 10.09375 16.8125 C8.69619124 14.49654548 7.39756792 13.93760647 4.9375 12.875 C1.09722222 11.19444444 1.09722222 11.19444444 0 9 C-2.32156597 8.59270772 -4.6568787 8.25561323 -7 8 C-7.33 9.32 -7.66 10.64 -8 12 C-7.01 11.67 -6.02 11.34 -5 11 C-1.28923057 13.08730781 2.06291216 15.12582431 4 19 C3.8125 22.1875 3.8125 22.1875 3 25 C-0.51582069 26.75791034 -4.27992562 25.93643252 -8 25 C-11.0625 22.75 -11.0625 22.75 -13 20 C-13.1875 17.375 -13.1875 17.375 -13 15 C-13.66 14.01 -14.32 13.02 -15 12 C-14.68760489 8.04299527 -13.32700167 5.18885414 -11 2 C-7.56310862 -0.57766854 -4.17001379 -0.4947474 0 0 Z " fill="#3BB6BD" transform="translate(15,3)"/>
<path d="M0 0 C3.6431399 1.35477072 7.51334412 1.66083015 11.35546875 2.12890625 C14.29249253 2.81592936 15.05423626 3.59143826 17.02734375 5.75390625 C18.19652344 5.14160156 19.36570313 4.52929688 20.5703125 3.8984375 C22.11791343 3.11994733 23.66612294 2.34266615 25.21484375 1.56640625 C25.98376953 1.15970703 26.75269531 0.75300781 27.54492188 0.33398438 C29.71056513 -0.73489534 31.68346735 -1.65912641 34.02734375 -2.24609375 C37.078125 -0.984375 37.078125 -0.984375 39.02734375 0.75390625 C38.75600862 4.00992785 38.41197235 5.40272361 35.9609375 7.640625 C25.33383584 15.29610037 13.60921665 22.81341466 0.20703125 21.0859375 C-3.67723079 20.68033274 -7.50777997 20.62758086 -11.41015625 20.62890625 C-12.0966626 20.62463623 -12.78316895 20.62036621 -13.49047852 20.6159668 C-16.7953978 20.62453193 -19.8129746 20.73569682 -22.97265625 21.75390625 C-25.25554843 18.9134111 -26.83234965 16.18323081 -28.22265625 12.81640625 C-28.75632812 11.56537109 -28.75632812 11.56537109 -29.30078125 10.2890625 C-30.0872366 7.3215653 -29.99404906 5.64130514 -28.97265625 2.75390625 C-24.92254505 0.49519039 -21.61672311 -0.66828165 -16.97265625 -0.24609375 C-16.97265625 -0.90609375 -16.97265625 -1.56609375 -16.97265625 -2.24609375 C-11.08184503 -4.20969749 -5.46253782 -2.66057724 0 0 Z " fill="#3CB8BD" transform="translate(30.97265625,55.24609375)"/>
</svg>
