<?xml version="1.0" encoding="UTF-8"?>
<svg version="1.1" xmlns="http://www.w3.org/2000/svg" width="512" height="512">
<path d="M0 0 C4.60596653 1.53532218 7.60598956 -0.04091062 11.765625 -2.078125 C21.07231796 -5.9353237 34.47388675 -5.6846835 43.953125 -2.453125 C54.48930689 2.22778469 62.42770793 9.34573254 68.765625 18.921875 C69.15363281 19.97503906 69.54164063 21.02820313 69.94140625 22.11328125 C71.55599994 25.31442842 71.55599994 25.31442842 75.36328125 25.734375 C76.850586 25.81690927 78.33917722 25.8780362 79.828125 25.921875 C99.40667409 27.3472473 117.20356878 35.54558651 130.765625 49.921875 C146.66124174 68.40828835 151.69320451 87.21706538 150.765625 110.921875 C151.38937012 111.06971436 152.01311523 111.21755371 152.65576172 111.36987305 C164.76886288 114.36175875 175.55724334 121.7028236 184.765625 129.921875 C185.59707031 130.65921875 186.42851562 131.3965625 187.28515625 132.15625 C203.68718605 147.57566972 214.11468909 170.46287511 214.96875 192.98046875 C215.4202402 218.229411 207.9362634 240.29212613 191.765625 259.921875 C190.12107676 261.61037038 188.46034647 263.28374353 186.765625 264.921875 C188.10857185 267.90765003 189.6159936 269.95876551 191.890625 272.296875 C208.18737512 290.62648376 214.05302131 315.57830349 212.93408203 339.51611328 C211.55327233 359.23567672 203.49924719 377.88352481 190.765625 392.921875 C190.25773437 393.57414062 189.74984375 394.22640625 189.2265625 394.8984375 C179.69581001 406.68276694 165.03526069 415.96714038 150.765625 420.921875 C149.775625 420.921875 148.785625 420.921875 147.765625 420.921875 C147.80042969 421.46972656 147.83523438 422.01757812 147.87109375 422.58203125 C148.48621846 440.59639769 142.04589773 458.23944268 130.2578125 471.80859375 C116.80742086 485.85294856 100.21685252 493.71152836 80.70043945 494.15307617 C74.46307201 494.20832491 68.72588495 493.90862832 62.765625 491.921875 C62.52972656 492.5096875 62.29382813 493.0975 62.05078125 493.703125 C57.96474222 500.75744162 47.54127734 505.26722866 39.91381836 507.45239258 C28.95292414 509.84786929 16.82620547 508.59554018 6.765625 503.921875 C4.1953804 502.96305328 3.17705251 502.7842496 0.546875 503.6640625 C-0.58234375 504.22480469 -0.58234375 504.22480469 -1.734375 504.796875 C-11.64208197 509.64893698 -25.88212998 509.90159932 -36.296875 506.359375 C-42.90207148 503.43764512 -50.5175747 499.52307536 -55.234375 493.921875 C-55.234375 493.261875 -55.234375 492.601875 -55.234375 491.921875 C-56.224375 492.251875 -57.214375 492.581875 -58.234375 492.921875 C-74.02696649 496.80026761 -92.20449753 493.20339766 -106.12890625 485.2734375 C-124.09156331 473.97471868 -133.83036774 459.01068459 -139.234375 438.921875 C-140.54111223 433.00255038 -140.34563394 426.95458179 -140.234375 420.921875 C-140.90210938 420.83035156 -141.56984375 420.73882812 -142.2578125 420.64453125 C-146.05725072 419.72209546 -149.38851511 418.11109329 -152.859375 416.359375 C-153.56650635 416.00294922 -154.2736377 415.64652344 -155.00219727 415.27929688 C-161.21435869 412.06846926 -166.79699562 408.32727966 -172.234375 403.921875 C-173.40033203 403.00148438 -173.40033203 403.00148438 -174.58984375 402.0625 C-188.88054186 390.15768436 -199.01408384 371.92223288 -203.234375 353.921875 C-203.45738281 353.00921875 -203.68039063 352.0965625 -203.91015625 351.15625 C-208.95272012 326.59519061 -203.66466588 300.94458685 -190.234375 279.921875 C-186.85665448 275.32174134 -183.34404673 270.89158887 -179.234375 266.921875 C-180.65975357 263.68957713 -182.41665447 261.5195491 -184.859375 258.984375 C-201.86982993 240.12495758 -208.13776796 216.1845083 -207.36621094 191.36132812 C-205.99886886 166.0604355 -193.54261089 145.42156719 -175.484375 128.296875 C-167.62105302 121.40733902 -154.23141772 110.921875 -143.234375 110.921875 C-143.28078125 109.7359375 -143.3271875 108.55 -143.375 107.328125 C-143.94539591 86.46204483 -139.05224772 69.0427265 -125.234375 52.921875 C-124.78835937 52.33277344 -124.34234375 51.74367187 -123.8828125 51.13671875 C-114.02000187 38.47656125 -97.71917961 30.19144253 -82.234375 26.921875 C-80.69845037 26.79659621 -79.16020825 26.69781269 -77.62109375 26.62109375 C-69.00752332 26.6084682 -69.00752332 26.6084682 -61.9296875 22.56640625 C-60.45424188 19.73400936 -59.32096355 16.92171162 -58.234375 13.921875 C-45.269101 -4.80574299 -19.7590651 -9.01823997 0 0 Z " fill="#D0E6FF" transform="translate(252.234375,4.078125)"/>
<path d="M0 0 C6.35667433 3.65535573 11.87888245 7.75589876 15.31640625 14.33203125 C15.31640625 15.32203125 15.31640625 16.31203125 15.31640625 17.33203125 C14.33800781 17.63496094 13.35960937 17.93789063 12.3515625 18.25 C0.4607168 21.6443442 0.4607168 21.6443442 -9.68359375 28.33203125 C-9.3962932 30.67147861 -9.06422596 33.00594555 -8.68359375 35.33203125 C-5.69056381 36.35596255 -3.53804541 36.70117982 -0.5859375 35.42578125 C0.57228516 34.7915625 0.57228516 34.7915625 1.75390625 34.14453125 C16.02091739 26.49843845 31.62425137 25.26892248 47.1875 29.35546875 C65.47560027 35.06336522 79.63875779 45.45806886 88.9765625 62.33203125 C94.59857152 73.60367586 96.57238331 84.83813863 96.31640625 97.33203125 C95.67203613 97.32155762 95.02766602 97.31108398 94.36376953 97.30029297 C91.38968956 97.25822451 88.41567253 97.23254579 85.44140625 97.20703125 C83.92160156 97.18189453 83.92160156 97.18189453 82.37109375 97.15625 C75.77083276 97.11394063 69.72815272 97.755314 63.31640625 99.33203125 C62.63147252 102.18981158 62.63147252 102.18981158 62.31640625 105.33203125 C63.30640625 106.81703125 63.30640625 106.81703125 64.31640625 108.33203125 C66.45995629 108.69921987 66.45995629 108.69921987 68.9453125 108.51953125 C70.36179077 108.48110107 70.36179077 108.48110107 71.80688477 108.44189453 C73.3275354 108.38751221 73.3275354 108.38751221 74.87890625 108.33203125 C98.56725121 107.94577825 118.39985323 114.12193441 136.0871582 130.58374023 C150.82618154 144.90731683 159.22211033 163.72783392 159.66992188 184.19921875 C159.73310068 193.5956307 159.58941255 202.41999 156.31640625 211.33203125 C155.96449219 212.39164063 155.61257813 213.45125 155.25 214.54296875 C150.96190231 226.6855028 144.30364201 236.18767599 135.31640625 245.33203125 C134.7028125 245.95851563 134.08921875 246.585 133.45703125 247.23046875 C120.97744671 259.01674303 104.43856821 264.77049092 87.671875 266.875 C85.05921967 267.22466954 85.05921967 267.22466954 82.31640625 269.33203125 C81.89973958 272.33203125 81.89973958 272.33203125 82.31640625 275.33203125 C84.78100403 277.79662903 85.53469926 277.65557042 88.94140625 277.70703125 C103.90823842 277.35578877 117.97401744 271.56029046 130.31640625 263.33203125 C133.4895225 263.4787942 134.91939063 263.96829837 137.2734375 266.125 C150.2526878 282.87506407 157.56163211 299.67024302 157.62890625 320.95703125 C157.63700317 322.52976807 157.63700317 322.52976807 157.64526367 324.13427734 C157.5555147 334.08158536 156.32305845 343.25808832 152.12890625 352.33203125 C151.81993408 353.01354248 151.51096191 353.69505371 151.19262695 354.3972168 C141.71351111 374.80581815 126.72693229 388.36180006 106.31640625 397.33203125 C103.90625 398.0234375 103.90625 398.0234375 102.31640625 398.33203125 C102.03667969 397.5328125 101.75695312 396.73359375 101.46875 395.91015625 C97.38213967 384.71468357 92.38602882 372.48085052 82.31640625 365.33203125 C79.05570215 364.49263856 79.05570215 364.49263856 76.31640625 365.33203125 C74.1273533 367.1414457 74.1273533 367.1414457 73.90234375 369.61328125 C74.48453924 373.43599878 76.32393868 375.0215351 78.94140625 377.83203125 C89.45745408 389.66258505 93.30662601 403.48987895 92.50732422 419.07128906 C91.23499088 434.13753805 84.9257023 446.76866156 73.91796875 457.14453125 C66.80455126 463.12578319 59.09595686 466.48342498 50.31640625 469.33203125 C49.32640625 469.66203125 48.33640625 469.99203125 47.31640625 470.33203125 C31.25619523 471.71063094 16.63407045 470.05712968 3.31640625 460.33203125 C1.90538115 459.05697766 0.50888056 457.76562758 -0.87109375 456.45703125 C-3.7993289 453.7549606 -4.44629777 453.36216407 -8.62109375 452.83203125 C-11.55051836 453.0043127 -11.55051836 453.0043127 -12.68359375 454.33203125 C-13.52312642 457.53108113 -13.52312642 457.53108113 -12.68359375 461.33203125 C-7.42465919 467.80749043 0.24559951 472.10276367 7.31640625 476.33203125 C1.74386119 482.39627146 -3.53806664 484.92065883 -11.6640625 485.5703125 C-19.17410486 485.74411372 -25.00887414 484.88332437 -31.68359375 481.33203125 C-33.41545036 479.60017464 -32.80705471 477.36848747 -32.81460223 475.05978969 C-32.81197521 474.29553958 -32.8093482 473.53128947 -32.80664158 472.74388027 C-32.80779542 471.93568381 -32.80894927 471.12748734 -32.81013808 470.29480007 C-32.81281218 467.55152943 -32.8082761 464.80831596 -32.80384827 462.06504822 C-32.80428381 460.09253045 -32.80515839 458.12001273 -32.80643743 456.14749533 C-32.80868578 450.69979508 -32.8046565 445.2521143 -32.79965937 439.80441654 C-32.7953599 433.94003032 -32.79680094 428.07564529 -32.79756165 422.21125793 C-32.7980872 412.04171931 -32.79493711 401.87218708 -32.78932381 391.70265007 C-32.78343836 381.03315135 -32.77955917 370.36365531 -32.77847099 359.69415474 C-32.77840225 359.03154972 -32.77833351 358.3689447 -32.77826269 357.68626074 C-32.77792437 354.32142823 -32.77762298 350.95659572 -32.77733582 347.59176321 C-32.77523362 323.73882673 -32.76849128 299.88589358 -32.7590332 276.03295898 C-32.74985357 252.85555031 -32.74276761 229.67814255 -32.73852539 206.50073242 C-32.73839386 205.78670522 -32.73826234 205.07267802 -32.73812683 204.33701363 C-32.73680834 197.1666681 -32.73553252 189.99632255 -32.73428797 182.825977 C-32.73175154 168.21825891 -32.72893028 153.61054088 -32.72593689 139.00282288 C-32.7257996 138.33113646 -32.72566231 137.65945005 -32.72552086 136.9674095 C-32.71631523 92.08894868 -32.7004487 47.21048977 -32.68359375 2.33203125 C-31.41404075 1.68368471 -30.14289669 1.0384531 -28.87109375 0.39453125 C-28.16339844 0.03488281 -27.45570313 -0.32476562 -26.7265625 -0.6953125 C-18.54199709 -4.5919794 -8.09190106 -3.77266557 0 0 Z " fill="#D0E6FF" transform="translate(294.68359375,14.66796875)"/>
<path d="M0 0 C4.60596653 1.53532218 7.60598956 -0.04091062 11.765625 -2.078125 C21.07231796 -5.9353237 34.47388675 -5.6846835 43.953125 -2.453125 C54.48930689 2.22778469 62.42770793 9.34573254 68.765625 18.921875 C69.15363281 19.97503906 69.54164063 21.02820313 69.94140625 22.11328125 C71.55599994 25.31442842 71.55599994 25.31442842 75.36328125 25.734375 C76.850586 25.81690927 78.33917722 25.8780362 79.828125 25.921875 C99.40667409 27.3472473 117.20356878 35.54558651 130.765625 49.921875 C146.66124174 68.40828835 151.69320451 87.21706538 150.765625 110.921875 C151.38937012 111.06971436 152.01311523 111.21755371 152.65576172 111.36987305 C164.76886288 114.36175875 175.55724334 121.7028236 184.765625 129.921875 C185.59707031 130.65921875 186.42851562 131.3965625 187.28515625 132.15625 C203.68718605 147.57566972 214.11468909 170.46287511 214.96875 192.98046875 C215.4202402 218.229411 207.9362634 240.29212613 191.765625 259.921875 C190.12107676 261.61037038 188.46034647 263.28374353 186.765625 264.921875 C188.10857185 267.90765003 189.6159936 269.95876551 191.890625 272.296875 C208.18737512 290.62648376 214.05302131 315.57830349 212.93408203 339.51611328 C211.55327233 359.23567672 203.49924719 377.88352481 190.765625 392.921875 C190.25773437 393.57414062 189.74984375 394.22640625 189.2265625 394.8984375 C179.69581001 406.68276694 165.03526069 415.96714038 150.765625 420.921875 C149.775625 420.921875 148.785625 420.921875 147.765625 420.921875 C147.80042969 421.46972656 147.83523438 422.01757812 147.87109375 422.58203125 C148.48621846 440.59639769 142.04589773 458.23944268 130.2578125 471.80859375 C116.80742086 485.85294856 100.21685252 493.71152836 80.70043945 494.15307617 C74.46307201 494.20832491 68.72588495 493.90862832 62.765625 491.921875 C62.52972656 492.5096875 62.29382813 493.0975 62.05078125 493.703125 C57.96474222 500.75744162 47.54127734 505.26722866 39.91381836 507.45239258 C28.95292414 509.84786929 16.82620547 508.59554018 6.765625 503.921875 C4.1953804 502.96305328 3.17705251 502.7842496 0.546875 503.6640625 C-0.58234375 504.22480469 -0.58234375 504.22480469 -1.734375 504.796875 C-11.64208197 509.64893698 -25.88212998 509.90159932 -36.296875 506.359375 C-42.90207148 503.43764512 -50.5175747 499.52307536 -55.234375 493.921875 C-55.234375 493.261875 -55.234375 492.601875 -55.234375 491.921875 C-56.224375 492.251875 -57.214375 492.581875 -58.234375 492.921875 C-74.02696649 496.80026761 -92.20449753 493.20339766 -106.12890625 485.2734375 C-124.09156331 473.97471868 -133.83036774 459.01068459 -139.234375 438.921875 C-140.54111223 433.00255038 -140.34563394 426.95458179 -140.234375 420.921875 C-140.90210938 420.83035156 -141.56984375 420.73882812 -142.2578125 420.64453125 C-146.05725072 419.72209546 -149.38851511 418.11109329 -152.859375 416.359375 C-153.56650635 416.00294922 -154.2736377 415.64652344 -155.00219727 415.27929688 C-161.21435869 412.06846926 -166.79699562 408.32727966 -172.234375 403.921875 C-173.40033203 403.00148438 -173.40033203 403.00148438 -174.58984375 402.0625 C-188.88054186 390.15768436 -199.01408384 371.92223288 -203.234375 353.921875 C-203.45738281 353.00921875 -203.68039063 352.0965625 -203.91015625 351.15625 C-208.95272012 326.59519061 -203.66466588 300.94458685 -190.234375 279.921875 C-186.85665448 275.32174134 -183.34404673 270.89158887 -179.234375 266.921875 C-180.65975357 263.68957713 -182.41665447 261.5195491 -184.859375 258.984375 C-201.86982993 240.12495758 -208.13776796 216.1845083 -207.36621094 191.36132812 C-205.99886886 166.0604355 -193.54261089 145.42156719 -175.484375 128.296875 C-167.62105302 121.40733902 -154.23141772 110.921875 -143.234375 110.921875 C-143.28078125 109.7359375 -143.3271875 108.55 -143.375 107.328125 C-143.94539591 86.46204483 -139.05224772 69.0427265 -125.234375 52.921875 C-124.78835937 52.33277344 -124.34234375 51.74367187 -123.8828125 51.13671875 C-114.02000187 38.47656125 -97.71917961 30.19144253 -82.234375 26.921875 C-80.69845037 26.79659621 -79.16020825 26.69781269 -77.62109375 26.62109375 C-69.00752332 26.6084682 -69.00752332 26.6084682 -61.9296875 22.56640625 C-60.45424188 19.73400936 -59.32096355 16.92171162 -58.234375 13.921875 C-45.269101 -4.80574299 -19.7590651 -9.01823997 0 0 Z M-47.68359375 20.6015625 C-49.53633861 23.21490789 -50.234375 24.67460759 -50.234375 27.921875 C-49.1 28.29699219 -47.965625 28.67210938 -46.796875 29.05859375 C-30.09335226 34.68319271 -30.09335226 34.68319271 -25.234375 38.921875 C-24.734375 42.734375 -24.734375 42.734375 -25.234375 45.921875 C-30.11128434 47.33075992 -32.66639436 46.97398285 -37.234375 44.734375 C-53.03446068 37.0175528 -68.79023572 35.54488322 -85.6328125 40.59765625 C-102.88122052 46.93953295 -117.07456769 58.50804632 -125.109375 75.171875 C-129.90583794 85.7197772 -131.45715917 96.38223751 -131.234375 107.921875 C-130.48341553 107.91140137 -129.73245605 107.90092773 -128.95874023 107.89013672 C-125.52981971 107.84835609 -122.10095293 107.82247878 -118.671875 107.796875 C-117.49044922 107.78011719 -116.30902344 107.76335937 -115.09179688 107.74609375 C-109.08040741 107.7124165 -103.89254378 107.81148606 -98.234375 109.921875 C-97.546875 112.734375 -97.546875 112.734375 -97.234375 115.921875 C-98.40136719 117.609375 -98.40136719 117.609375 -100.234375 118.921875 C-102.54003906 119.21484375 -102.54003906 119.21484375 -105.25 119.109375 C-106.24660645 119.08375488 -107.24321289 119.05813477 -108.27001953 119.03173828 C-109.33075684 118.9954834 -110.39149414 118.95922852 -111.484375 118.921875 C-134.55291152 118.56223189 -153.90855604 125.26158207 -171.00512695 141.17358398 C-186.01459922 155.75998641 -194.10284668 174.8225505 -194.52734375 195.63427734 C-194.67748906 217.06376622 -188.93103589 235.86010925 -174.234375 251.921875 C-173.64398438 252.60378906 -173.05359375 253.28570312 -172.4453125 253.98828125 C-158.51790801 269.13062953 -139.64868363 274.89085696 -120.0625 278.4921875 C-118.234375 278.921875 -118.234375 278.921875 -117.234375 279.921875 C-117.046875 282.859375 -117.046875 282.859375 -117.234375 285.921875 C-119.59113729 288.27863729 -120.08111242 288.24171612 -123.296875 288.296875 C-138.48416878 287.90353502 -152.70381847 282.27557935 -165.234375 273.921875 C-168.40749125 274.06863795 -169.83735938 274.55814212 -172.19140625 276.71484375 C-184.90323399 293.11979197 -192.85772841 309.95825015 -192.546875 330.984375 C-192.55009766 332.07814453 -192.55332031 333.17191406 -192.55664062 334.29882812 C-192.49051093 344.40464777 -191.3088038 353.7012991 -187.046875 362.921875 C-186.73790283 363.60338623 -186.42893066 364.28489746 -186.1105957 364.98706055 C-176.19676488 386.33160624 -160.40555638 399.52357016 -139.234375 408.921875 C-138.574375 408.921875 -137.914375 408.921875 -137.234375 408.921875 C-136.95464844 408.12265625 -136.67492187 407.3234375 -136.38671875 406.5 C-132.30010842 395.30452732 -127.30399757 383.07069427 -117.234375 375.921875 C-113.859375 375.296875 -113.859375 375.296875 -111.234375 375.921875 C-109.234375 377.921875 -109.234375 377.921875 -108.8203125 380.203125 C-109.40250799 384.02584253 -111.24190743 385.61137885 -113.859375 388.421875 C-125.3781562 401.38050385 -128.4618128 416.38424733 -127.52001953 433.25976562 C-125.97590286 447.65040512 -117.10633822 460.76965869 -106.234375 469.921875 C-103.03814988 472.2449046 -99.75299955 474.12974915 -96.234375 475.921875 C-95.32558594 476.41042969 -94.41679687 476.89898437 -93.48046875 477.40234375 C-81.28404881 483.07916502 -65.75469238 483.08530797 -53.046875 478.859375 C-45.50273741 475.91674454 -37.90147691 472.15288137 -32.484375 465.984375 C-30.234375 463.921875 -30.234375 463.921875 -26.484375 463.546875 C-23.234375 463.921875 -23.234375 463.921875 -22.234375 464.921875 C-21.609375 467.984375 -21.609375 467.984375 -22.234375 471.921875 C-27.49330956 478.39733418 -35.16356826 482.69260742 -42.234375 486.921875 C-37.46951588 492.63970594 -31.71729208 495.32294276 -24.33984375 496.30859375 C-16.75866236 496.59673826 -10.19513767 494.86454037 -3.234375 491.921875 C-1.50251839 490.19001839 -2.11091404 487.95833122 -2.10336652 485.64963344 C-2.10730704 484.50325828 -2.10730704 484.50325828 -2.11132717 483.33372402 C-2.1095964 482.12142932 -2.1095964 482.12142932 -2.10783067 480.88464382 C-2.10515657 478.14137318 -2.10969265 475.39815971 -2.11412048 472.65489197 C-2.11368494 470.6823742 -2.11281036 468.70985648 -2.11153132 466.73733908 C-2.10928297 461.28963883 -2.11331225 455.84195805 -2.11830938 450.39426029 C-2.12260885 444.52987407 -2.12116781 438.66548904 -2.1204071 432.80110168 C-2.11988155 422.63156306 -2.12303164 412.46203083 -2.12864494 402.29249382 C-2.13453039 391.6229951 -2.13840958 380.95349906 -2.13949776 370.28399849 C-2.1395665 369.62139347 -2.13963524 368.95878845 -2.13970606 368.27610449 C-2.14004438 364.91127198 -2.14034577 361.54643947 -2.14063293 358.18160696 C-2.14273513 334.32867048 -2.14947747 310.47573733 -2.15893555 286.62280273 C-2.16811518 263.44539406 -2.17520114 240.2679863 -2.17944336 217.09057617 C-2.17964065 216.01953537 -2.17964065 216.01953537 -2.17984192 214.92685738 C-2.18116041 207.75651185 -2.18243623 200.5861663 -2.18368078 193.41582075 C-2.18621721 178.80810266 -2.18903847 164.20038463 -2.19203186 149.59266663 C-2.19216915 148.92098021 -2.19230644 148.2492938 -2.19244789 147.55725325 C-2.20165352 102.67879243 -2.21752005 57.80033352 -2.234375 12.921875 C-2.86085937 12.64472656 -3.48734375 12.36757813 -4.1328125 12.08203125 C-4.95007813 11.71980469 -5.76734375 11.35757812 -6.609375 10.984375 C-7.42148438 10.62472656 -8.23359375 10.26507813 -9.0703125 9.89453125 C-10.47121285 9.2648847 -11.86062784 8.60874858 -13.234375 7.921875 C-27.03426167 6.79043268 -38.3936046 9.83418963 -47.68359375 20.6015625 Z M9.765625 12.921875 C9.66677387 15.46015812 9.6338504 17.97123632 9.64257717 20.51002598 C9.64142333 21.31822244 9.64026948 22.12641891 9.63908067 22.95910618 C9.63640657 25.70237682 9.64094265 28.44559029 9.64537048 31.18885803 C9.64493494 33.1613758 9.64406036 35.13389352 9.64278132 37.10641092 C9.64053297 42.55411117 9.64456225 48.00179195 9.64955938 53.44948971 C9.65385885 59.31387593 9.65241781 65.17826096 9.6516571 71.04264832 C9.65113155 81.21218694 9.65428164 91.38171917 9.65989494 101.55125618 C9.66578039 112.2207549 9.66965958 122.89025094 9.67074776 133.55975151 C9.6708165 134.22235653 9.67088524 134.88496155 9.67095606 135.56764551 C9.67129438 138.93247802 9.67159577 142.29731053 9.67188293 145.66214304 C9.67398513 169.51507952 9.68072747 193.36801267 9.69018555 217.22094727 C9.69936518 240.39835594 9.70645114 263.5757637 9.71069336 286.75317383 C9.71082489 287.46720103 9.71095641 288.18122823 9.71109192 288.91689262 C9.71241041 296.08723815 9.71368623 303.2575837 9.71493078 310.42792925 C9.71746721 325.03564734 9.72028847 339.64336537 9.72328186 354.25108337 C9.72341915 354.92276979 9.72355644 355.5944562 9.72369789 356.28649675 C9.73290352 401.16495757 9.74877005 446.04341648 9.765625 490.921875 C11.035178 491.57022154 12.30632206 492.21545315 13.578125 492.859375 C14.28582031 493.21902344 14.99351562 493.57867187 15.72265625 493.94921875 C22.66205451 497.25306228 31.44446284 496.94716263 38.703125 494.671875 C42.4655534 493.20022404 45.63834292 491.48785004 48.765625 488.921875 C48.765625 487.931875 48.765625 486.941875 48.765625 485.921875 C46.5769795 484.23503758 46.5769795 484.23503758 43.765625 482.671875 C33.02915708 476.06054417 33.02915708 476.06054417 29.765625 471.921875 C29.203125 468.046875 29.203125 468.046875 29.765625 464.921875 C30.765625 463.921875 30.765625 463.921875 33.765625 463.359375 C37.58187418 463.40563257 39.13980511 464.88147836 41.828125 467.484375 C53.04201795 478.29502865 66.77088088 481.32777455 81.82128906 481.28979492 C89.06394471 481.15597703 95.17775394 480.06092328 101.765625 476.921875 C102.54679687 476.57125 103.32796875 476.220625 104.1328125 475.859375 C118.11180856 468.89406209 127.83591101 456.47993662 132.765625 441.921875 C137.40510925 427.13351896 135.49324678 411.97352101 128.578125 398.359375 C125.82248236 393.60199195 122.21724123 389.58240599 118.55859375 385.5 C116.55803178 382.62337495 116.18918703 381.34556717 116.765625 377.921875 C118.765625 375.921875 118.765625 375.921875 121.390625 375.296875 C126.83492715 376.3050791 129.43460376 379.6614115 132.765625 383.921875 C137.94473095 391.78469948 141.96729966 399.90095778 144.765625 408.921875 C165.74306783 402.1420931 181.99211442 388.05772061 192.13378906 368.50732422 C201.15007368 350.31090765 203.41171316 326.91589744 197.16015625 307.41015625 C192.98799774 296.97391662 188.18593012 287.45052949 180.765625 278.921875 C179.5590625 277.4059375 179.5590625 277.4059375 178.328125 275.859375 C177.8125 275.22 177.296875 274.580625 176.765625 273.921875 C172.37628236 274.53835571 169.04558295 276.17611838 165.140625 278.234375 C153.2288079 284.36165971 140.42673719 289.50983334 126.765625 287.921875 C124.765625 285.921875 124.765625 285.921875 124.453125 282.921875 C124.55625 281.931875 124.659375 280.941875 124.765625 279.921875 C127.59851286 278.0332831 128.73653828 277.58237967 131.94140625 277.0625 C132.7624585 276.91981689 133.58351074 276.77713379 134.42944336 276.63012695 C135.3035083 276.47890381 136.17757324 276.32768066 137.078125 276.171875 C157.94047025 272.22969364 176.02975474 261.69234584 188.35620117 244.04248047 C200.96461556 225.05950239 205.19225245 201.77930224 200.78930664 179.39379883 C197.126061 164.22691468 188.89148004 151.61046936 177.765625 140.921875 C176.63833984 139.80039062 176.63833984 139.80039062 175.48828125 138.65625 C159.32724824 123.34272143 139.18197906 118.67377911 117.578125 118.984375 C116.03427124 119.03307739 116.03427124 119.03307739 114.45922852 119.08276367 C113.49428467 119.10314697 112.52934082 119.12353027 111.53515625 119.14453125 C110.22961792 119.18719116 110.22961792 119.18719116 108.89770508 119.23071289 C107.84232544 119.07783813 107.84232544 119.07783813 106.765625 118.921875 C104.765625 115.921875 104.765625 115.921875 105.140625 112.734375 C105.45 111.3421875 105.45 111.3421875 105.765625 109.921875 C113.2213117 108.08844165 120.23287457 107.67022009 127.890625 107.796875 C129.4684375 107.81041016 129.4684375 107.81041016 131.078125 107.82421875 C133.64087378 107.84751647 136.20312012 107.88022388 138.765625 107.921875 C139.0960926 89.71402825 134.09442067 73.19327369 122.0859375 59.23046875 C108.70300348 45.9151253 91.83279956 38.00143669 72.828125 37.609375 C61.58620323 37.69772016 51.74049057 40.60706965 41.86328125 46.015625 C38.91117334 47.29102357 36.75865494 46.9458063 33.765625 45.921875 C33.435625 43.611875 33.105625 41.301875 32.765625 38.921875 C40.52965475 33.63018992 48.69685454 30.28764121 57.765625 27.921875 C57.44191431 22.58064861 54.56539631 19.39289346 50.765625 15.921875 C40.04958793 8.31470444 20.82544127 1.86205873 9.765625 12.921875 Z " fill="#2F59FF" transform="translate(252.234375,4.078125)"/>
<path d="M0 0 C9.82108069 7.21209648 16.00771884 20.91469115 18.57421875 32.58203125 C19.73231504 41.87867575 19.83527188 51.79403945 18 61 C19.08667969 61.43119141 19.08667969 61.43119141 20.1953125 61.87109375 C21.92893975 62.56889079 23.65495018 63.28640561 25.3671875 64.03515625 C32.20565226 66.8365834 38.40621994 67.47078569 45.71484375 67.53125 C49 68 49 68 51.44921875 69.80078125 C53 72 53 72 52.875 75.6875 C52.58625 76.780625 52.2975 77.87375 52 79 C45.02138926 82.48930537 32.30165059 80.5144756 25.1875 78.1875 C22.34178279 77.11573638 19.90378339 75.94165737 17.30078125 74.36328125 C15.15895269 72.83007922 15.15895269 72.83007922 13 73 C11.72011281 74.91840514 11.72011281 74.91840514 10.4375 77.375 C6.51786049 84.15230772 1.56367884 90.62421411 -5 95 C-7.83079592 95.35384949 -9.36830089 95.3920891 -11.8125 93.875 C-13.67359631 90.93642688 -13.65910316 89.42733641 -13 86 C-11.4604565 84.18797092 -9.76006022 82.64978701 -8.0078125 81.04296875 C2.63506981 70.21373247 6.29934858 56.95393773 6.31469727 42.20043945 C6.07564166 29.8586633 0.56086681 19.7305322 -7.19140625 10.34765625 C-9 8 -9 8 -9.4375 5.375 C-9 3 -9 3 -7.875 1.1875 C-5.11811615 -0.55852644 -3.21299221 -0.33758262 0 0 Z " fill="#315BFF" transform="translate(186,339)"/>
<path d="M0 0 C2.9375 0.4375 2.9375 0.4375 4.875 1.5 C6.67806555 4.78794307 5.93961129 6.90063664 4.9375 10.4375 C3.60742266 12.19510221 2.13554895 13.74717305 0.62890625 15.35546875 C-6.00205912 23.5178349 -9.46174497 33.89043496 -9.3125 44.3125 C-9.30355713 45.01938965 -9.29461426 45.7262793 -9.28540039 46.45458984 C-8.98367417 60.05259317 -4.02972702 71.64591187 5.375 81.4375 C6.67244141 82.675 6.67244141 82.675 7.99609375 83.9375 C9.9375 86.4375 9.9375 86.4375 10.328125 89.62890625 C9.9375 92.4375 9.9375 92.4375 8.25 94.375 C5.28668584 95.73652272 4.03684759 95.33234923 0.9375 94.4375 C-6.68613623 89.54940383 -12.23567702 81.5184126 -16.0625 73.4375 C-20.88749199 75.00236227 -25.63186764 76.7508084 -30.37890625 78.53515625 C-35.5280508 80.266528 -40.25447482 80.62320384 -45.6875 80.6875 C-46.99976563 80.71328125 -48.31203125 80.7390625 -49.6640625 80.765625 C-53.0625 80.4375 -53.0625 80.4375 -55.03125 79.14453125 C-56.0625 77.4375 -56.0625 77.4375 -55.9375 73.875 C-55.0625 70.4375 -55.0625 70.4375 -52.0625 68.4375 C-49.75423998 68.26302186 -47.43940004 68.17038039 -45.125 68.125 C-38.60042659 67.8712798 -33.49965854 66.42419784 -27.55078125 63.59375 C-25.36720616 62.5790903 -23.41081507 61.92146189 -21.0625 61.4375 C-21.2275 60.426875 -21.3925 59.41625 -21.5625 58.375 C-23.92241656 39.08524723 -20.76717593 22.43461331 -9.02734375 6.8125 C-3.8458733 0.54941047 -3.8458733 0.54941047 0 0 Z " fill="#315AFF" transform="translate(329.0625,338.5625)"/>
<path d="M0 0 C3.5390625 1.046875 3.5390625 1.046875 5.578125 4.03125 C6.13373493 5.27475794 6.6617692 6.53089087 7.1640625 7.796875 C9.59864953 13.60613711 12.20821143 18.15639196 17.8515625 21.359375 C18.4084375 21.58625 18.9653125 21.813125 19.5390625 22.046875 C20.1990625 21.015625 20.8590625 19.984375 21.5390625 18.921875 C27.09476653 11.2030257 37.10862502 4.71206937 46.5390625 3.046875 C59.52656125 2.145581 71.72307705 3.12604674 82.1484375 11.77734375 C84.52892184 13.95053872 84.52892184 13.95053872 84.7890625 16.421875 C84.5390625 19.046875 84.5390625 19.046875 83.4140625 20.859375 C80.68015829 22.59084767 78.73578774 22.3068029 75.5390625 22.046875 C72.890625 20.734375 72.890625 20.734375 70.1640625 19.046875 C62.61764748 15.09533181 55.83410428 14.89977944 47.5390625 16.046875 C38.62990528 18.83878924 32.13996439 25.02354785 27.5390625 33.046875 C25.27891829 38.65772251 25.17798211 43.91960048 24.98046875 49.90234375 C24.5390625 53.046875 24.5390625 53.046875 23.19140625 54.94921875 C20.59089982 56.67674193 18.57061623 56.42581922 15.5390625 56.046875 C13.8671875 55.01953125 13.8671875 55.01953125 12.5390625 53.046875 C12.29352683 50.31382917 12.21105234 47.8324172 12.2890625 45.109375 C12.29421875 44.39330078 12.299375 43.67722656 12.3046875 42.93945312 C12.35541808 39.51830967 12.48030019 36.3170844 13.5390625 33.046875 C12.8378125 32.82 12.1365625 32.593125 11.4140625 32.359375 C4.18355821 29.05849261 0.53836142 23.66518383 -3.4609375 17.046875 C-4.0796875 16.056875 -4.6984375 15.066875 -5.3359375 14.046875 C-6.80932551 10.11784031 -7.30730288 6.19572489 -6.4609375 2.046875 C-3.4609375 0.046875 -3.4609375 0.046875 0 0 Z " fill="#315AFF" transform="translate(329.4609375,195.953125)"/>
<path d="M0 0 C1 1 1 1 1.4375 4.875 C1.35666556 13.32219886 -4.26629677 21.12645035 -10 27 C-16.11702128 32 -16.11702128 32 -19 32 C-18.835 33.0725 -18.67 34.145 -18.5 35.25 C-18.05136745 38.93802349 -17.84026029 42.59828915 -17.75 46.3125 C-17.72421875 47.31925781 -17.6984375 48.32601562 -17.671875 49.36328125 C-18 52 -18 52 -19.328125 53.83203125 C-21.92695056 55.64756593 -23.92396378 55.38450453 -27 55 C-28.66015625 53.890625 -28.66015625 53.890625 -30 52 C-30.37109375 48.9609375 -30.37109375 48.9609375 -30.4375 45.375 C-30.76447275 39.03172875 -31.84682822 34.47835241 -35 29 C-35.556875 27.948125 -36.11375 26.89625 -36.6875 25.8125 C-41.9909503 19.36235774 -49.17005586 15.56951722 -57.4453125 14.59375 C-65.71414304 14.38307916 -71.22478475 15.34199576 -78.31640625 19.6875 C-81.46728305 21.22854018 -83.53349675 21.36515133 -87 21 C-89.37005582 18.93575783 -89.94091412 17.74842109 -90.1875 14.625 C-87.83239437 9.41897703 -82.39010683 6.47521297 -77.3125 4.1875 C-67.95035872 0.83126067 -55.31669744 0.20047753 -46.00390625 4.03515625 C-45.34261719 4.35355469 -44.68132812 4.67195312 -44 5 C-42.89978516 5.49306641 -42.89978516 5.49306641 -41.77734375 5.99609375 C-35.36798609 9.1732882 -30.82950436 13.80292237 -26 19 C-25.01 19.99 -25.01 19.99 -24 21 C-16.66968622 17.16031183 -13.31975581 10.40363976 -10.25 2.9375 C-7.99683693 -2.35743322 -5.10240704 -0.92771037 0 0 Z " fill="#315AFF" transform="translate(188,197)"/>
<path d="M0 0 C1.7578125 1.34375 1.7578125 1.34375 3 3 C2.93127274 6.29890849 2.7121411 8.23088762 0.4375 10.6875 C-2 12 -2 12 -5.75 13.3125 C-13.8511993 16.23919025 -19.18860623 21.32813872 -23 29 C-25.35669705 36.07009114 -25.18050582 45.25810148 -22.94140625 52.35546875 C-19.82141987 58.4855233 -15.93082135 62.56759552 -10 66 C-8.948125 66.61875 -7.89625 67.2375 -6.8125 67.875 C-0.07343191 69.86357747 7.19167827 69.67461962 14.0625 68.25 C17 68 17 68 19.4375 69.625 C21.28037501 72.42617001 21.58989164 73.71346084 21 77 C19.1930802 79.8698138 16.57456675 80.84073331 13.34375 81.6484375 C0.16743203 83.6248852 -10.50769499 81.33877165 -21.45703125 73.94140625 C-29.65852082 67.680054 -34.81074314 59.11021565 -37 49 C-38.21640696 34.98363624 -37.05032878 24.11035327 -27.84375 13.03125 C-20.98643866 5.47658496 -10.90530167 -2.67614765 0 0 Z " fill="#315BFF" transform="translate(317,235)"/>
<path d="M0 0 C9.9211958 0.34991769 18.41098348 6.49576899 24.9765625 13.4765625 C33.65776433 23.93094598 35.08791176 33.9515653 34.22753906 47.18994141 C33.22367406 56.83006137 27.88627427 65.97770227 20.875 72.5625 C14.41403841 77.70255388 6.33551523 82.08756844 -2 82.375 C-3.08539063 82.42398438 -4.17078125 82.47296875 -5.2890625 82.5234375 C-18.14477558 82.87527807 -18.14477558 82.87527807 -23 79.375 C-24.1875 75.9375 -24.1875 75.9375 -24 72.375 C-22.4375 69.875 -22.4375 69.875 -20 68.375 C-17.99200324 68.65617635 -15.99217594 68.99771216 -14 69.375 C-3.76892418 70.16699952 3.72999333 68.85519308 12.3125 63.1875 C15.72435402 59.61695509 17.82819679 55.77917463 20 51.375 C20.495 50.385 20.495 50.385 21 49.375 C21.83947942 38.43778244 21.87416476 29.40525038 14.53125 20.6171875 C10.28703514 16.47699751 5.18800438 14.6224838 -0.328125 12.6484375 C-3.24534124 11.25806836 -4.43203711 10.1745462 -6 7.375 C-5.67575583 2.83558165 -4.78112158 0.5976402 0 0 Z " fill="#315BFF" transform="translate(198,234.625)"/>
<path d="M0 0 C2.875 0.9375 2.875 0.9375 4.875 3.9375 C4.65186282 7.80521104 4.04989833 10.58770335 2.3125 14.0625 C-0.54301228 20.44456994 -0.1736035 27.69566353 1.94140625 34.234375 C5.74712934 42.57170842 10.35724762 46.51129965 18.25 50.75 C22.13930822 52.02408373 25.57202413 52.37962512 29.640625 52.53125 C32.35181401 53.02419346 33.24891805 53.74177151 34.875 55.9375 C35.51713369 61.07456955 35.51713369 61.07456955 33.63671875 63.6015625 C30.20100968 66.20691173 25.97735331 65.35765567 21.875 64.9375 C11.35053686 62.98551302 2.50072019 57.69038152 -4.3671875 49.515625 C-11.27363047 39.38617531 -13.48956272 27.95527747 -12.125 15.9375 C-10.42273135 9.69357857 -7.69797204 -0.15395944 0 0 Z " fill="#315BFF" transform="translate(318.125,111.0625)"/>
<path d="M0 0 C4.57452349 1.67360615 6.14539658 5.10329316 8.25 9.3125 C12.33879299 20.60535684 11.27245365 32.82414343 6.30859375 43.6796875 C0.38881813 54.29334515 -8.85528137 60.9163231 -20.5 64.25 C-24.77213614 64.99592853 -29.12877632 65.7278576 -33.4375 64.9375 C-35.17578125 63.60546875 -35.17578125 63.60546875 -36.4375 61.9375 C-37.07656582 56.82497346 -37.07656582 56.82497346 -35.26171875 54.3046875 C-32.81900373 52.4739589 -30.89727585 52.38561163 -27.875 52.0625 C-19.87687583 50.86326494 -13.13756323 48.57597083 -8 42.0625 C-7.11314627 40.70835224 -6.25597513 39.33404007 -5.4375 37.9375 C-4.81875 36.885625 -4.2 35.83375 -3.5625 34.75 C-1.06450145 26.28456048 -1.55695579 18.72942555 -5.6015625 10.94140625 C-6.95582622 7.69497031 -6.44150617 5.21725348 -5.4375 1.9375 C-2.4375 -0.0625 -2.4375 -0.0625 0 0 Z " fill="#315AFF" transform="translate(195.4375,111.0625)"/>
</svg>
