<?xml version="1.0" encoding="UTF-8"?>
<svg version="1.1" xmlns="http://www.w3.org/2000/svg" width="512" height="512">
<path d="M0 0 C1.96194511 2.07230452 3.42891665 3.90991586 5 6.25 C5.70092773 7.24930542 5.70092773 7.24930542 6.41601562 8.26879883 C7.96711528 10.4976152 9.48656655 12.74545711 11 15 C11.515625 15.76425293 12.03125 16.52850586 12.5625 17.31591797 C15.42141985 21.56313071 18.25493956 25.8266253 21.078125 30.09765625 C25.01854918 36.04769676 29.02641046 41.95091371 33.04214478 47.85018921 C65.8105419 95.99975518 97.94880982 144.77799416 122 198 C122.29632324 198.64308105 122.59264648 199.28616211 122.89794922 199.94873047 C143.29982155 244.68720584 126.37459465 300.91608752 115.484375 346.4296875 C115.2719623 347.3206267 115.0595496 348.2115659 114.84070015 349.12950325 C109.95794485 369.56732769 104.60362591 389.87501928 99.17602539 410.17370605 C97.20486984 417.55038916 95.24409502 424.92984109 93.28215408 432.30897903 C92.56641928 434.9979438 91.84848304 437.68631327 91.13021851 440.37460327 C88.82243678 449.02712307 86.55911171 457.6877884 84.38720703 466.37548828 C83.97437329 468.01803155 83.56153665 469.66057409 83.1486969 471.30311584 C82.38095046 474.36055958 81.62721139 477.42099971 80.88145447 480.48387146 C80.54130916 481.84426345 80.20072414 483.2045456 79.85961914 484.56469727 C79.57107559 485.74121353 79.28253204 486.9177298 78.98524475 488.12989807 C77.97243563 491.08029735 77.42349821 492.13661556 75 494 C67.08182935 495.26428178 58.54537726 493.40912755 50.71337891 492.19580078 C49.43233276 492.00394196 48.15128662 491.81208313 46.8314209 491.6144104 C43.3513434 491.09286043 39.87288007 490.56121828 36.39468431 490.02728128 C32.74098562 489.46785058 29.08602419 488.91678304 25.4312439 488.36447144 C19.30273153 487.43699632 13.17524363 486.50298032 7.04833984 485.56494141 C-0.02768151 484.48166779 -7.10518775 483.40855895 -14.1835779 482.34088147 C-21.01188724 481.3107104 -27.83913542 480.27366692 -34.66591263 479.23339462 C-37.56418214 478.79185849 -40.4627931 478.35267147 -43.36170578 477.91537857 C-47.40548744 477.30498426 -51.44766125 476.6845197 -55.48974609 476.06298828 C-57.28830551 475.79325195 -57.28830551 475.79325195 -59.12319946 475.51806641 C-60.22484436 475.347034 -61.32648926 475.17600159 -62.46151733 474.99978638 C-63.89329347 474.78132144 -63.89329347 474.78132144 -65.35399437 474.55844307 C-69.24455022 473.73733599 -72.16409882 472.83590118 -75 470 C-75.5625 468.0390625 -75.5625 468.0390625 -76 465.625 C-76.16395264 464.73111572 -76.32790527 463.83723145 -76.49682617 462.91625977 C-76.66287354 461.95389404 -76.8289209 460.99152832 -77 460 C-77.17442627 459.0112085 -77.34885254 458.02241699 -77.52856445 457.00366211 C-79.07004731 448.03365878 -80.19653509 439.06360962 -81 430 C-81.16822266 428.19789063 -81.16822266 428.19789063 -81.33984375 426.359375 C-85.45870309 375.12753555 -76.07161158 322.61332777 -54.03857422 276.19189453 C-52.47481597 272.89160739 -50.95949445 269.56973849 -49.4375 266.25 C-48.62603392 264.49952033 -47.81400032 262.74930264 -47 261 C-47.93457031 260.13761719 -48.86914062 259.27523438 -49.83203125 258.38671875 C-79.19849854 231.15330798 -79.19849854 231.15330798 -88.984375 218.57421875 C-90.87434095 216.16048316 -92.85066122 213.8448263 -94.86474609 211.53442383 C-118.21769626 184.61309019 -154.95342245 137.59592714 -160.4765625 101.921875 C-159.82563292 97.93092969 -158.11343524 96.32599695 -155 94 C-151.15189833 91.34629338 -147.2122674 88.8540657 -143.25 86.375 C-142.11217759 85.65631505 -140.97481196 84.93690643 -139.83789062 84.21679688 C-137.58286366 82.78895085 -135.32616867 81.36388837 -133.06835938 79.94042969 C-129.19290345 77.48959235 -125.34307013 75.00118365 -121.5 72.5 C-113.43059757 67.26270528 -105.32400349 62.08391652 -97.21875 56.90234375 C-90.64040771 52.69507872 -84.0751695 48.46868618 -77.5246582 44.21826172 C-71.26299935 40.15993205 -64.97520074 36.14282563 -58.6875 32.125 C-50.94030983 27.17326596 -43.20595635 22.20318436 -35.5 17.1875 C-34.29875488 16.40608643 -34.29875488 16.40608643 -33.07324219 15.60888672 C-29.07509542 13.00656692 -25.08084705 10.39841722 -21.08984375 7.78515625 C-19.53910054 6.7733792 -17.98832092 5.76165794 -16.4375 4.75 C-15.37402344 4.05040161 -15.37402344 4.05040161 -14.2890625 3.33666992 C-9.15716257 -0.00551787 -6.06097292 -1.84859674 0 0 Z M-11.60546875 20.0546875 C-12.69879517 20.72226074 -12.69879517 20.72226074 -13.81420898 21.40332031 C-14.59739502 21.88897461 -15.38058105 22.37462891 -16.1875 22.875 C-16.99324463 23.3709668 -17.79898926 23.86693359 -18.62915039 24.37792969 C-25.03543448 28.34567646 -31.31704183 32.48056522 -37.5625 36.6953125 C-42.31176393 39.89625221 -47.14968711 42.95468921 -52 46 C-50.74150402 49.34426529 -49.31506127 52.31815321 -47.41796875 55.34375 C-46.90516357 56.16641357 -46.3923584 56.98907715 -45.86401367 57.83666992 C-45.0341394 59.15501831 -45.0341394 59.15501831 -44.1875 60.5 C-42.99991098 62.40228818 -41.81241342 64.30463346 -40.625 66.20703125 C-40.01914063 67.17463379 -39.41328125 68.14223633 -38.7890625 69.13916016 C-36.07450543 73.4799325 -33.38070078 77.83345708 -30.6875 82.1875 C-29.89388062 83.46886841 -29.89388062 83.46886841 -29.08422852 84.77612305 C-25.42867675 90.68074367 -21.788589 96.59474294 -18.15307617 102.51171875 C-12.26514257 112.09458408 -6.34994686 121.65861763 -0.375 131.1875 C6.85922443 142.72554494 13.94977447 154.34879959 21 166 C21.75450439 165.83991455 22.50900879 165.6798291 23.28637695 165.51489258 C35.06265701 163.28041893 45.35171552 164.99543949 55.25 171.6875 C61.89677332 177.0317743 66.39548401 184.6297749 68 193 C69.05434451 203.80703121 67.09391173 213.10524399 60.71875 221.96484375 C55.19499488 228.50547197 48.1980119 231.83946978 40 234 C38.60489121 234.04955982 37.20844569 234.0734701 35.8125 234.0625 C30.36958641 235.40092138 29.06916952 238.67159727 26.0625 243.19921875 C21.31970831 249.63971429 13.80950221 253.56608533 6 255 C-4.26417646 255.9862376 -13.16338373 255.10569998 -21.7265625 249.08203125 C-28.52528572 243.41642857 -32.22611166 237.32166501 -35 229 C-35.7576829 217.36149378 -35.55425689 207.73358625 -28.125 198.1875 C-27.073125 196.6096875 -27.073125 196.6096875 -26 195 C-27.03736283 191.36923011 -28.90172394 188.34884273 -30.9140625 185.17578125 C-31.50179443 184.24330566 -32.08952637 183.31083008 -32.69506836 182.35009766 C-33.3319458 181.34769043 -33.96882324 180.3452832 -34.625 179.3125 C-35.99430484 177.13983651 -37.36276642 174.96664138 -38.73046875 172.79296875 C-39.0830928 172.23335449 -39.43571686 171.67374023 -39.79902649 171.09716797 C-43.55436403 165.13261054 -47.24914291 159.13116716 -50.9375 153.125 C-51.59806396 152.05008301 -52.25862793 150.97516602 -52.93920898 149.86767578 C-54.28331574 147.68001943 -55.62714653 145.4921935 -56.97070312 143.30419922 C-70.57279933 121.15660899 -84.19953228 99.02467422 -98 77 C-102.3792559 78.55392951 -106.16312094 80.82987741 -110.0625 83.3125 C-110.74207764 83.74111328 -111.42165527 84.16972656 -112.12182617 84.61132812 C-122.15162628 90.96087045 -132.12291038 97.41527359 -142 104 C-141.38706049 107.84476289 -140.23933949 110.91811706 -138.515625 114.40234375 C-137.99943604 115.44624268 -137.48324707 116.4901416 -136.95141602 117.56567383 C-136.10921509 119.23472778 -136.10921509 119.23472778 -135.25 120.9375 C-134.66726318 122.09467529 -134.08452637 123.25185059 -133.48413086 124.4440918 C-117.69894553 155.41819453 -98.18338447 185.05060968 -75 211 C-74.22140625 211.87785156 -73.4428125 212.75570312 -72.640625 213.66015625 C-70.44163908 216.12036922 -68.22227728 218.56082237 -66 221 C-65.09331465 222.01132861 -64.18708683 223.02306755 -63.28125 224.03515625 C-58.82394594 228.99147538 -54.35487987 233.78609679 -49.2421875 238.08203125 C-46.17322816 240.70722121 -43.21487452 243.44587666 -40.25 246.1875 C-39.6945752 246.69925781 -39.13915039 247.21101562 -38.56689453 247.73828125 C-37.51240504 248.71332509 -36.46315177 249.69407081 -35.41992188 250.68115234 C-34.18762906 251.82572693 -32.90244125 252.9128389 -31.609375 253.98828125 C-29.37821184 256.7772352 -29.73014426 258.48622531 -30 262 C-30.95874023 264.51928711 -30.95874023 264.51928711 -32.30859375 267.02734375 C-32.80407715 267.97262939 -33.29956055 268.91791504 -33.81005859 269.8918457 C-34.34711426 270.89691162 -34.88416992 271.90197754 -35.4375 272.9375 C-63.68991001 327.63319646 -72.31393904 388.83989519 -63.5 449.5625 C-63.38164795 450.39499268 -63.2632959 451.22748535 -63.14135742 452.08520508 C-62.54586939 456.4934805 -62.54586939 456.4934805 -60 460 C-57.56243682 460.52374618 -55.1898608 460.94000208 -52.7265625 461.2890625 C-52.00640961 461.39721283 -51.28625671 461.50536316 -50.54428101 461.61679077 C-49.02000386 461.84411534 -47.49512741 462.06745165 -45.96972656 462.28710938 C-43.63990909 462.6228515 -41.31211142 462.97046219 -38.984375 463.3203125 C-37.50270777 463.53976311 -36.02093987 463.75853541 -34.5390625 463.9765625 C-33.84414703 464.07965729 -33.14923157 464.18275208 -32.43325806 464.28897095 C-29.23205923 464.74741192 -26.24535655 465 -23 465 C-21.12535392 458.11878852 -20.00474253 451.2051906 -18.93701172 444.15820312 C-18.74164825 442.88907074 -18.54628479 441.61993835 -18.34500122 440.31234741 C-17.8128457 436.85476316 -17.28530644 433.39648902 -16.75863028 429.93806648 C-16.20614355 426.31551396 -15.64936246 422.69362158 -15.0930481 419.07165527 C-14.04178347 412.22293356 -12.9943492 405.37363186 -11.94831002 398.52411032 C-10.75659006 390.72192268 -9.56057071 382.92039602 -8.36420035 375.11892033 C-5.90470224 359.08000781 -3.45057026 343.04027907 -1 327 C-1.54124512 326.73590332 -2.08249023 326.47180664 -2.64013672 326.19970703 C-3.35443848 325.84763184 -4.06874023 325.49555664 -4.8046875 325.1328125 C-5.51093262 324.78621582 -6.21717773 324.43961914 -6.94482422 324.08251953 C-14.74268247 319.97516583 -18.91124114 313.18268836 -22.14453125 305.16015625 C-24.75992853 295.49871151 -23.80740796 285.49945259 -19.48046875 276.5546875 C-14.50591748 267.97063333 -8.01447035 263.01683766 1.5 260.1875 C10.51476031 258.02346289 18.27431647 258.89833932 27 262 C29.04296875 263.34765625 29.04296875 263.34765625 30.75 264.75 C33.8471662 267.37234755 33.8471662 267.37234755 37.6875 266.875 C39.12675879 266.59213989 40.56410167 266.2994523 42 266 C53.45308388 264.27797604 63.50486526 265.31235991 73.03515625 272.34375 C80.87170529 278.94950903 84.68567109 286.68724348 85.9375 296.875 C86.46656384 307.1785182 83.66253051 316.11469918 77 324 C70.31500855 331.16592609 62.26708183 333.71840125 53 336 C48.51599592 362.45491706 44.28070233 388.94632826 40.13867188 415.45678711 C39.28180824 420.9398221 38.41966794 426.42201459 37.55639839 431.90404415 C36.88468319 436.17493094 36.21639879 440.44634926 35.54909897 444.71792793 C35.23216574 446.74311159 34.91399966 448.76810273 34.59454727 450.79289055 C34.1533337 453.59176406 33.71692806 456.39134657 33.28173828 459.19116211 C33.15090347 460.01429901 33.02006866 460.83743591 32.88526917 461.68551636 C32.29788565 465.49645091 31.84094641 469.12942329 32 473 C37.63675299 474.76388189 43.22303808 475.77530844 49.0625 476.625 C49.93455078 476.7590625 50.80660156 476.893125 51.70507812 477.03125 C56.17849054 477.69498114 60.46283363 478.1639042 65 478 C67.25638447 471.54401225 69.10905925 465.04423216 70.79296875 458.41796875 C71.05594757 457.39553574 71.31892639 456.37310272 71.58987427 455.31968689 C72.15954434 453.10466584 72.72789955 450.88930629 73.29507446 448.67364502 C77.49753244 432.25728609 81.74330535 415.85497609 86.1640625 399.49609375 C115.97378863 306.6982975 115.97378863 306.6982975 111.38671875 212.59765625 C110.99813438 211.56760216 110.99813438 211.56760216 110.60169983 210.51673889 C107.48897829 202.44679417 103.75255916 194.69395541 99.9375 186.9375 C99.56760956 186.18019592 99.19771912 185.42289185 98.81661987 184.64263916 C92.78122821 172.2991027 86.3883348 160.23419983 79.40966797 148.39306641 C78.09373309 146.15912223 76.79577396 143.91589123 75.50390625 141.66796875 C65.75620983 124.78815139 55.353798 108.26135161 44.42724609 92.12109375 C42.7373366 89.60964427 41.06555069 87.08655734 39.39453125 84.5625 C31.9279916 73.29397438 24.34862446 62.11834398 16.59936523 51.04223633 C12.81653888 45.63033361 9.08270176 40.19305092 5.4375 34.6875 C1.24446331 28.35776454 1.24446331 28.35776454 -3 22.0625 C-3.804375 20.87333984 -3.804375 20.87333984 -4.625 19.66015625 C-5.07875 19.11230469 -5.5325 18.56445312 -6 18 C-8.50208655 18 -9.47842665 18.75122975 -11.60546875 20.0546875 Z M-66 55 C-68.18430217 56.09771902 -68.18430217 56.09771902 -70.5703125 57.74609375 C-71.46621094 58.33583984 -72.36210938 58.92558594 -73.28515625 59.53320312 C-74.22230469 60.16162109 -75.15945312 60.79003906 -76.125 61.4375 C-77.54232422 62.37432617 -77.54232422 62.37432617 -78.98828125 63.33007812 C-81.33035653 64.87963298 -83.66722003 66.43650079 -86 68 C-81.2131484 76.63041185 -76.14292104 85.02461484 -70.84008789 93.34619141 C-66.87609167 99.57944517 -63.01367645 105.86883676 -59.1875 112.1875 C-54.39240671 120.10033064 -49.54012924 127.9736608 -44.625 135.8125 C-37.9729996 146.42567726 -31.36727083 157.06597577 -24.8359375 167.75390625 C-22.35783178 171.80756681 -19.84258775 175.83330936 -17.2890625 179.83984375 C-16.17176359 181.622326 -15.0545698 183.40487416 -13.9375 185.1875 C-13.41841064 185.9825293 -12.89932129 186.77755859 -12.36450195 187.59667969 C-10.03606056 191.35435276 -9.00262455 193.35042317 -8.984375 197.8671875 C-10.03401691 201.10492908 -10.55724391 202.09082943 -13.3125 203.9375 C-18.12679997 207.70176746 -20.51555637 211.578929 -21.37890625 217.67578125 C-21.68116228 224.72517185 -20.41381497 230.24096779 -15.609375 235.53125 C-10.48032214 240.17439259 -5.03906013 241.501116 1.69921875 241.30859375 C8.15415806 240.44282091 12.6935862 236.97203555 16.70703125 232.01171875 C18.13503836 229.78989499 19.00746142 227.59333023 19.9375 225.125 C20.890625 222.82421875 20.890625 222.82421875 22 221 C25.27143733 219.90952089 27.76217791 219.93766364 31.171875 220.109375 C37.93292502 220.34251466 42.6874002 219.0334894 47.76171875 214.38671875 C51.91758533 209.84847219 53.74004239 205.80754218 54.3125 199.625 C53.73796471 192.9603906 52.14294332 188.68848807 47.125 184.125 C40.96654755 179.22724525 35.82067818 178.14058482 28 179 C26.05221352 179.66746682 26.05221352 179.66746682 24.3125 180.5625 C20.08086249 182.398871 18.3445092 182.62919095 14 181 C11.09576952 178.04532383 9.11959814 174.54073823 7 171 C6.13940486 169.57677337 5.27872118 168.15360026 4.41796875 166.73046875 C2.92460587 164.25091801 1.43664242 161.76844818 -0.04272461 159.28051758 C-4.02287015 152.58815674 -8.10978568 145.96937585 -12.25 139.375 C-17.58197814 130.87857591 -22.87404092 122.3592537 -28.125 113.8125 C-28.7955542 112.72130859 -29.4661084 111.63011719 -30.15698242 110.50585938 C-31.47852537 108.35531198 -32.80005878 106.20475872 -34.12158203 104.05419922 C-38.49067917 96.9502994 -42.88017137 89.85914216 -47.28027344 82.77441406 C-49.21552069 79.65230308 -51.14260378 76.52520813 -53.0703125 73.3984375 C-54.44246641 71.18214187 -55.81485806 68.96599341 -57.1875 66.75 C-57.835979 65.69474121 -58.48445801 64.63948242 -59.15258789 63.55224609 C-59.75578857 62.58109863 -60.35898926 61.60995117 -60.98046875 60.609375 C-61.51567139 59.74280273 -62.05087402 58.87623047 -62.60229492 57.98339844 C-63.85296977 55.87621842 -63.85296977 55.87621842 -66 55 Z M-6 282 C-9.27267483 287.4896481 -9.87119392 292.75481209 -9 299 C-7.26142448 304.63809238 -4.1243587 308.96214179 1 312 C6.77214146 314.88040891 6.77214146 314.88040891 13 316 C14.66375216 323.08797376 13.23740575 329.69930528 12.09399414 336.7980957 C11.87651571 338.19474344 11.65994106 339.59153215 11.44419861 340.9884491 C10.85816428 344.76636775 10.25966744 348.54221718 9.65895391 352.31782556 C9.03218982 356.27152065 8.4172593 360.22705477 7.8011322 364.18241882 C6.63332418 371.6680144 5.45540521 379.15198063 4.27360195 386.63537806 C2.5373505 397.63275005 0.81682954 408.63258511 -0.90428257 419.63233471 C-1.15798717 421.25360424 -1.41169975 422.87487253 -1.66542053 424.49613953 C-1.78923129 425.28737927 -1.91304205 426.07861902 -2.04060465 426.89383572 C-2.77806071 431.60452043 -3.51826682 436.31476298 -4.26094997 441.02462637 C-4.7216953 443.94724099 -5.18135265 446.87002618 -5.64087486 449.79283333 C-5.85479295 451.15147189 -6.06925239 452.51002534 -6.28428268 453.86848831 C-6.57690607 455.71735234 -6.86754283 457.56653047 -7.1580658 459.41572571 C-7.32160018 460.45194722 -7.48513456 461.48816874 -7.65362453 462.5557909 C-8.04677027 464.9185975 -8.04677027 464.9185975 -8 467 C-4.39662187 467.67097694 -0.79217704 468.33603957 2.8125 469 C3.83666016 469.19078125 4.86082031 469.3815625 5.91601562 469.578125 C6.89892578 469.75859375 7.88183594 469.9390625 8.89453125 470.125 C10.25348511 470.37636719 10.25348511 470.37636719 11.63989258 470.6328125 C14.09597295 471.0768657 14.09597295 471.0768657 17 471 C18.21333183 463.54247218 19.42017654 456.08390683 20.625 448.625 C20.81619415 447.44314117 21.00738831 446.26128235 21.20437622 445.04360962 C23.9282902 428.18476809 26.579006 411.31567112 29.17024994 394.43592072 C29.6435511 391.35403848 30.11779309 388.27230248 30.59234619 385.19061279 C30.90906723 383.13342433 31.22577865 381.07623439 31.54248047 379.01904297 C31.69927025 378.0006987 31.85606003 376.98235443 32.01760101 375.93315125 C32.96540723 369.77208318 33.90615443 363.60998229 34.84235477 357.44714069 C35.43490404 353.556689 36.03357587 349.66719672 36.63379478 345.77792168 C36.91520045 343.94546623 37.19393377 342.11259825 37.46988869 340.27931404 C37.84995496 337.75631071 38.23916561 335.23488143 38.63061523 332.71362305 C38.79501319 331.59925086 38.79501319 331.59925086 38.96273232 330.4623661 C39.50976176 327.00100796 40.02237701 324.96643448 42 322 C44.80230245 321.29942439 47.52604059 321.02692951 50.40625 320.86328125 C57.84789474 320.35895292 62.0001534 318.22580519 67.25 312.875 C70.65955981 308.66477839 71.8762561 304.3869843 72 299 C71.04907153 292.4503466 67.8859558 287.38544326 63 283 C58.09692732 279.87037914 53.24628118 278.31214469 47.4375 279.54296875 C43.51841213 280.66514943 40.41316393 281.72455738 37 284 C33.5896024 284.21314985 31.25468201 284.084894 28 283 C27.32349152 281.67163315 26.65771668 280.3377709 26 279 C15.61864773 269.76383287 2.85682544 272.06535982 -6 282 Z " fill="#F2841D" transform="translate(174,10)"/>
<path d="M0 0 C0.77590485 -0.00540298 1.55180969 -0.01080597 2.35122681 -0.01637268 C4.918132 -0.02888861 7.48392181 -0.01235078 10.05078125 0.00561523 C11.83292703 0.00546031 13.61507316 0.00397246 15.3972168 0.00120544 C19.13312668 -0.00017983 22.86865324 0.01240073 26.60449219 0.03515625 C31.39659456 0.06354138 36.18805984 0.06080533 40.98020935 0.04806614 C44.66049657 0.04111575 48.34063617 0.04889088 52.02090454 0.06132317 C53.78796828 0.06584391 55.55504784 0.06616904 57.32211304 0.06225777 C59.79059406 0.05935178 62.25819287 0.07582234 64.7265625 0.09765625 C65.45912262 0.0931546 66.19168274 0.08865295 66.94644165 0.08401489 C69.78071633 0.12573221 71.87627087 0.20010136 74.31929016 1.71307373 C75.71468881 4.10376388 75.72434187 5.75852495 75.70385742 8.52392578 C75.70363083 9.54475754 75.70340424 10.56558929 75.70317078 11.61735535 C75.68768692 12.71743423 75.67220306 13.81751312 75.65625 14.95092773 C75.65200516 16.07868118 75.64776031 17.20643463 75.64338684 18.36836243 C75.62657436 21.97555265 75.58891653 25.5821872 75.55078125 29.18920898 C75.53573778 31.6325603 75.52204879 34.07592036 75.50976562 36.51928711 C75.47666241 42.5136178 75.42643718 48.5076237 75.36328125 54.50170898 C75.978582 54.49060593 76.59388275 54.47950287 77.22782898 54.46806335 C83.63538081 54.35739401 90.04266093 54.28201019 96.45092773 54.22705078 C98.84199044 54.20191584 101.23297639 54.16780265 103.6237793 54.12451172 C107.06187889 54.06381837 110.49896221 54.03548826 113.9375 54.01342773 C115.00538254 53.98762131 116.07326508 53.96181488 117.17350769 53.93522644 C118.17416763 53.93484879 119.17482758 53.93447113 120.20581055 53.93408203 C121.08295212 53.92297897 121.96009369 53.91187592 122.86381531 53.9004364 C126.61353338 54.80247017 128.06243097 56.45156744 130.36328125 59.50170898 C130.8494262 62.23773055 131.03048623 64.34801148 130.97851562 67.07421875 C130.98406464 67.81954865 130.98961365 68.56487854 130.99533081 69.33279419 C131.00710457 71.78689657 130.98287988 74.23914313 130.95703125 76.69311523 C130.95531962 78.40274471 130.95538636 80.11237681 130.95715332 81.82200623 C130.95550145 85.40063672 130.93682667 88.97863974 130.90527344 92.55712891 C130.86556589 97.14284107 130.8612324 101.72773284 130.86873627 106.31358433 C130.87180623 109.84209197 130.85968507 113.37041534 130.84260559 116.8988781 C130.835578 118.58974998 130.83245077 120.28064274 130.83329773 121.97152901 C130.83149903 124.33426777 130.8101134 126.69602486 130.78320312 129.05859375 C130.78613373 129.75636429 130.78906433 130.45413483 130.79208374 131.17304993 C130.73914017 134.18721645 130.50345578 136.25013264 129.02453613 138.90440369 C126.14769343 141.67050306 123.31558437 141.62497969 119.5246582 141.61523438 C118.05347282 141.61512108 118.05347282 141.61512108 116.55256653 141.61500549 C115.4962352 141.60984421 114.43990387 141.60468292 113.3515625 141.59936523 C111.72652046 141.59724281 111.72652046 141.59724281 110.06864929 141.59507751 C106.604332 141.58947458 103.14007905 141.57692156 99.67578125 141.56420898 C97.32877697 141.55919436 94.98177169 141.55463139 92.63476562 141.55053711 C86.87758217 141.53950419 81.12043631 141.52276319 75.36328125 141.50170898 C75.3721637 142.11923035 75.38104614 142.73675171 75.39019775 143.37298584 C75.47865044 149.79665883 75.53900694 156.220159 75.58300781 162.64428711 C75.60313061 165.04214504 75.63043184 167.43995386 75.66503906 169.83764648 C75.71352615 173.28308221 75.73624366 176.7278695 75.75390625 180.17358398 C75.77455139 181.24662781 75.79519653 182.31967163 75.81646729 183.42523193 C75.81676941 184.42596741 75.81707153 185.42670288 75.81738281 186.45776367 C75.82626526 187.33712585 75.83514771 188.21648804 75.84429932 189.12249756 C75.17077874 192.45386487 74.13863348 193.55144086 71.36328125 195.50170898 C68.70773347 195.89665267 66.4657954 196.04960144 63.8125 196.01928711 C63.05756256 196.02629639 62.30262512 196.03330566 61.52481079 196.04052734 C59.03309177 196.05811096 56.54251151 196.04648409 54.05078125 196.03295898 C52.31729922 196.03565381 50.58381866 196.03953616 48.8503418 196.04455566 C45.21876624 196.05045118 41.58758445 196.04188625 37.95605469 196.02319336 C33.3018408 196.00040352 28.64854954 196.01352635 23.99436951 196.03748322 C20.41525322 196.0519399 16.83635555 196.04733586 13.25723267 196.03697205 C11.54122814 196.03430439 9.82520374 196.03757592 8.10922241 196.04689026 C5.71030129 196.05705406 3.3128725 196.04155905 0.9140625 196.01928711 C0.20537018 196.02738403 -0.50332214 196.03548096 -1.23348999 196.04382324 C-4.50712979 195.98753801 -6.37598274 195.68493082 -9.08026123 193.78460693 C-10.92258496 191.08242136 -11.12361694 189.70462973 -11.09082031 186.45776367 C-11.09051819 185.4570282 -11.09021606 184.45629272 -11.08990479 183.42523193 C-11.06925964 182.35218811 -11.0486145 181.27914429 -11.02734375 180.17358398 C-11.02168396 179.06944153 -11.01602417 177.96529907 -11.01019287 176.82769775 C-10.98780643 173.30192673 -10.93760371 169.77717274 -10.88671875 166.25170898 C-10.86665678 163.86109866 -10.84840549 161.47047241 -10.83203125 159.07983398 C-10.78793418 153.22011211 -10.72099873 147.36098321 -10.63671875 141.50170898 C-11.24171204 141.50615021 -11.84670532 141.51059143 -12.47003174 141.51516724 C-18.76401407 141.55939746 -25.05795229 141.58957416 -31.35205078 141.61157227 C-33.70135288 141.62163282 -36.05064244 141.63528271 -38.39990234 141.65258789 C-41.7757476 141.67683351 -45.15142735 141.68819157 -48.52734375 141.69702148 C-49.57851379 141.70734406 -50.62968384 141.71766663 -51.71270752 141.728302 C-52.69342224 141.72845306 -53.67413696 141.72860413 -54.68457031 141.72875977 C-55.97696625 141.7354216 -55.97696625 141.7354216 -57.29547119 141.74221802 C-59.92306462 141.47229357 -61.45338465 140.98791027 -63.63671875 139.50170898 C-66.19897333 136.02821208 -65.89660287 132.4377202 -65.91137695 128.2421875 C-65.91648788 127.51811707 -65.92159882 126.79404663 -65.92686462 126.04803467 C-65.94074416 123.65881035 -65.93980514 121.26987503 -65.9375 118.88061523 C-65.94138781 117.2167907 -65.94572266 115.55296716 -65.95048523 113.8891449 C-65.95794388 110.40311464 -65.95765873 106.91718567 -65.95239258 103.43115234 C-65.94659808 98.96776515 -65.96352998 94.50479293 -65.98673725 90.04147434 C-66.00148157 86.60562218 -66.00234535 83.16986981 -65.99922752 79.73399162 C-65.99974038 78.08858353 -66.00497136 76.4431698 -66.01503944 74.79779243 C-66.02740049 72.49513033 -66.02061482 70.19327456 -66.0090332 67.890625 C-66.00966263 66.58142593 -66.01029205 65.27222687 -66.01094055 63.9233551 C-65.61278022 60.28283026 -64.84095465 58.39259657 -62.63671875 55.50170898 C-60.17510858 54.2709039 -58.57174882 54.38126921 -55.81982422 54.38818359 C-54.81893768 54.38825912 -53.81805115 54.38833466 -52.78683472 54.38841248 C-51.70346832 54.39357376 -50.62010193 54.39873505 -49.50390625 54.40405273 C-48.3969339 54.40546768 -47.28996155 54.40688263 -46.14944458 54.40834045 C-42.60350882 54.41395126 -39.05763552 54.42650562 -35.51171875 54.43920898 C-33.11198008 54.44422259 -30.71224042 54.44878574 -28.3125 54.45288086 C-22.4205515 54.4639242 -16.52863959 54.48067288 -10.63671875 54.50170898 C-10.64338058 53.88418762 -10.65004242 53.26666626 -10.65690613 52.63043213 C-10.72324606 46.20671797 -10.76851383 39.78310103 -10.80151367 33.35913086 C-10.81660557 30.9613042 -10.83708125 28.56350516 -10.86303711 26.16577148 C-10.89940186 22.72038965 -10.91644123 19.27537262 -10.9296875 15.82983398 C-10.94517136 14.75679016 -10.96065521 13.68374634 -10.97660828 12.57818604 C-10.97683487 11.57745056 -10.97706146 10.57671509 -10.97729492 9.5456543 C-10.98395676 8.66629211 -10.99061859 7.78692993 -10.9974823 6.88092041 C-9.97931285 0.16616116 -5.98078642 -0.07893148 0 0 Z M4.36328125 15.50170898 C4.15329116 31.44732746 4.15329116 31.44732746 3.9753418 47.39331055 C3.94305557 49.39300411 3.90968238 51.39268055 3.875 53.39233398 C3.8687561 54.42986816 3.86251221 55.46740234 3.8560791 56.53637695 C3.83613892 57.53072754 3.81619873 58.52507812 3.7956543 59.54956055 C3.78455124 60.41115784 3.77344818 61.27275513 3.76200867 62.16046143 C3.26352209 65.08747481 2.49919625 66.44021103 0.36328125 68.50170898 C-1.93363953 69.02069092 -1.93363953 69.02069092 -4.65893555 69.04760742 C-6.2115509 69.07733643 -6.2115509 69.07733643 -7.79553223 69.10766602 C-9.42428284 69.10935791 -9.42428284 69.10935791 -11.0859375 69.11108398 C-12.08548462 69.12671387 -13.08503174 69.14234375 -14.11486816 69.15844727 C-17.85107703 69.2110759 -21.58770632 69.22931893 -25.32421875 69.25170898 C-37.85390625 69.37545898 -37.85390625 69.37545898 -50.63671875 69.50170898 C-50.63671875 88.31170898 -50.63671875 107.12170898 -50.63671875 126.50170898 C-33.14671875 126.83170898 -15.65671875 127.16170898 2.36328125 127.50170898 C3.18133276 130.77391502 3.50898307 133.1491811 3.56860352 136.45385742 C3.5887854 137.44820801 3.60896729 138.44255859 3.62976074 139.46704102 C3.64623657 140.5045752 3.6627124 141.54210937 3.6796875 142.61108398 C3.69833862 143.57030762 3.71698975 144.52953125 3.73620605 145.51782227 C3.80442456 149.09569219 3.86462378 152.6737114 3.92578125 156.25170898 C4.07015625 164.25420898 4.21453125 172.25670898 4.36328125 180.50170898 C22.84328125 180.50170898 41.32328125 180.50170898 60.36328125 180.50170898 C60.57327134 164.5560905 60.57327134 164.5560905 60.7512207 148.61010742 C60.78350693 146.61041386 60.81688012 144.61073742 60.8515625 142.61108398 C60.86092834 141.05478271 60.86092834 141.05478271 60.8704834 139.46704102 C60.89042358 138.47269043 60.91036377 137.47833984 60.9309082 136.45385742 C60.94201126 135.59226013 60.95311432 134.73066284 60.96455383 133.84295654 C61.46304041 130.91594316 62.22736625 129.56320694 64.36328125 127.50170898 C66.66020203 126.98272705 66.66020203 126.98272705 69.38549805 126.95581055 C70.9381134 126.92608154 70.9381134 126.92608154 72.52209473 126.89575195 C74.15084534 126.89406006 74.15084534 126.89406006 75.8125 126.89233398 C76.81204712 126.8767041 77.81159424 126.86107422 78.84143066 126.8449707 C82.57763953 126.79234207 86.31426882 126.77409904 90.05078125 126.75170898 C98.40390625 126.66920898 106.75703125 126.58670898 115.36328125 126.50170898 C115.36328125 107.69170898 115.36328125 88.88170898 115.36328125 69.50170898 C99.04348498 69.25208428 99.04348498 69.25208428 82.72338867 69.02368164 C80.68016236 68.98848218 78.63694829 68.95256165 76.59375 68.91577148 C75.52950806 68.90441162 74.46526611 68.89305176 73.36877441 68.88134766 C72.35400024 68.86128662 71.33922607 68.84122559 70.29370117 68.82055664 C69.41211838 68.80723297 68.53053558 68.7939093 67.62223816 68.78018188 C65.36328125 68.50170898 65.36328125 68.50170898 62.36328125 66.50170898 C61.40810592 63.63618299 61.21273927 61.73649577 61.15795898 58.75488281 C61.1377771 57.78071411 61.11759521 56.80654541 61.09680176 55.80285645 C61.07208801 54.27126892 61.07208801 54.27126892 61.046875 52.70874023 C61.02822388 51.76816772 61.00957275 50.82759521 60.99035645 49.85852051 C60.9220403 46.34384587 60.86190336 42.82901609 60.80078125 39.31420898 C60.65640625 31.45608398 60.51203125 23.59795898 60.36328125 15.50170898 C41.88328125 15.50170898 23.40328125 15.50170898 4.36328125 15.50170898 Z " fill="#EC4F24" transform="translate(367.63671875,7.498291015625)"/>
</svg>
